<?xml version="1.0" standalone="no"?>
<!DOCTYPE svg PUBLIC "-//W3C//DTD SVG 20010904//EN"
 "http://www.w3.org/TR/2001/REC-SVG-20010904/DTD/svg10.dtd">
<svg version="1.0" xmlns="http://www.w3.org/2000/svg"
 width="250.000000pt" height="250.000000pt" viewBox="0 0 250.000000 250.000000"
 preserveAspectRatio="xMidYMid meet">
<metadata>
Created by potrace 1.11, written by Peter Selinger 2001-2013
</metadata>
<g transform="translate(0.000000,250.000000) scale(0.100000,-0.100000)"
fill="#000000" stroke="none">
<path d="M2371 1943 c-1 -8 -14 -13 -31 -13 -16 0 -30 -4 -30 -9 0 -5 -12 -8
-26 -5 -15 3 -23 1 -20 -5 7 -10 -26 -7 -44 4 -6 3 -10 1 -10 -4 0 -6 -4 -11
-10 -11 -5 0 -7 8 -4 18 5 14 4 15 -5 2 -6 -8 -11 -11 -11 -6 0 5 -6 4 -13 -3
-10 -8 -17 -7 -25 1 -9 9 -12 8 -12 -6 0 -9 -5 -14 -10 -11 -6 4 -8 12 -4 18
3 7 -2 3 -10 -7 -10 -13 -16 -15 -16 -7 0 11 -3 11 -15 1 -18 -15 -20 0 -2 20
6 8 2 6 -11 -5 -24 -20 -56 -30 -46 -14 8 13 -10 11 -24 -3 -16 -16 -16 4 1
22 6 8 2 6 -11 -5 -24 -20 -56 -30 -46 -14 7 12 -3 11 -26 -1 -13 -7 -21 -7
-25 0 -4 6 -12 7 -18 3 -17 -10 -40 -10 -54 1 -8 5 -13 5 -13 -1 0 -7 -80 -10
-87 -3 -2 1 -16 3 -33 4 -20 1 -30 -4 -30 -14 0 -13 -1 -13 -10 0 -5 8 -10 10
-10 3 0 -6 -9 -9 -22 -6 -19 4 -20 3 -8 -6 9 -7 10 -11 3 -11 -6 0 -14 4 -18
10 -9 15 -34 0 -28 -17 4 -10 2 -14 -4 -10 -6 4 -14 0 -17 -9 -4 -10 -12 -14
-23 -10 -10 4 -14 4 -10 0 4 -4 2 -14 -5 -21 -9 -11 -9 -17 3 -24 11 -7 11 -9
0 -9 -8 0 -11 -7 -8 -19 4 -15 1 -18 -12 -14 -9 4 -13 3 -9 -2 4 -4 2 -15 -5
-24 -11 -14 -10 -14 6 -2 9 8 20 11 24 8 3 -4 12 1 20 11 8 9 12 12 9 6 -3 -6
1 -11 8 -11 8 0 12 6 10 12 -3 7 4 11 18 10 29 -2 49 5 43 15 -2 4 7 5 20 2
15 -2 25 0 25 7 0 6 5 11 11 11 5 0 7 -4 4 -10 -3 -6 1 -7 9 -4 9 3 13 10 10
15 -3 5 2 6 10 3 9 -3 16 -13 16 -21 0 -8 4 -12 8 -9 5 3 9 -1 9 -9 0 -8 -4
-12 -8 -9 -4 2 -8 -5 -8 -16 -1 -11 -1 -29 -2 -40 0 -13 -5 -18 -12 -14 -7 4
-9 4 -5 -1 4 -4 2 -17 -4 -29 -10 -19 -10 -20 5 -7 15 12 16 10 5 -20 -6 -19
-16 -37 -22 -41 -7 -5 -6 -8 4 -8 12 -1 11 -3 -3 -11 -10 -6 -14 -15 -10 -22
12 -19 12 -38 0 -30 -6 4 -8 0 -4 -10 8 -22 -2 -48 -17 -41 -6 3 -3 -1 7 -9
17 -14 16 -15 -4 -20 -11 -3 -19 -10 -16 -14 3 -5 2 -15 -2 -22 -7 -10 -13
-11 -31 -1 -13 7 -20 8 -16 2 3 -6 2 -13 -4 -17 -5 -3 -10 -1 -10 4 0 6 -5 11
-11 11 -5 0 -7 -4 -4 -10 3 -5 1 -10 -5 -10 -6 0 -8 -5 -4 -12 5 -8 0 -7 -11
2 -17 14 -18 14 -5 -10 12 -23 12 -24 -4 -11 -9 8 -16 10 -15 5 1 -5 1 -20 0
-34 -1 -20 -3 -22 -11 -10 -8 12 -10 10 -10 -8 0 -15 4 -21 12 -16 7 5 9 2 5
-8 -4 -11 0 -15 11 -13 9 1 16 7 15 12 -1 5 10 8 25 7 69 -4 68 -4 52 -14 -13
-8 -13 -10 2 -10 11 0 15 -5 12 -15 -4 -8 -10 -12 -15 -9 -5 3 -9 0 -9 -5 0
-6 5 -11 12 -11 6 0 3 -7 -8 -16 -10 -8 -13 -13 -6 -9 6 3 12 1 12 -4 0 -6 -4
-11 -8 -11 -13 0 -11 -34 2 -42 7 -5 7 -8 -2 -8 -8 0 -10 -5 -6 -12 6 -10 5
-10 -7 -1 -12 10 -15 8 -15 -7 0 -10 4 -17 8 -14 4 2 6 -4 5 -15 0 -11 -4 -18
-8 -15 -4 2 -6 -18 -5 -45 1 -37 -2 -47 -12 -44 -10 4 -11 -1 -6 -21 4 -17 2
-26 -6 -26 -6 0 -8 5 -4 12 5 7 3 8 -5 4 -9 -6 -8 -12 4 -26 15 -16 15 -19 -1
-35 -14 -14 -15 -21 -6 -36 10 -16 9 -17 -6 -12 -15 6 -16 5 -2 -12 8 -10 10
-16 3 -12 -6 4 -14 3 -18 -3 -3 -5 -2 -10 3 -10 6 0 13 -7 16 -16 5 -14 4 -15
-9 -4 -13 11 -14 10 -9 -5 6 -14 4 -16 -6 -10 -9 5 -11 4 -6 -4 4 -6 3 -18 -4
-26 -8 -10 -8 -15 1 -21 8 -5 10 -3 4 7 -5 8 -4 10 0 6 11 -9 16 -37 7 -36
-21 3 -23 -3 -6 -17 10 -8 14 -13 8 -10 -6 3 -11 -1 -11 -9 0 -11 5 -12 20 -3
17 9 19 8 14 -6 -5 -13 -3 -15 11 -8 9 4 38 8 64 7 40 0 45 2 35 14 -9 11 -9
13 0 8 6 -4 14 -1 16 5 4 10 6 10 6 1 1 -7 6 -13 12 -13 5 0 7 5 3 12 -5 7 -2
9 7 6 11 -4 14 5 15 38 0 28 -4 41 -10 37 -6 -4 -4 1 4 11 8 11 13 30 12 44
-2 13 0 22 5 19 6 -4 10 0 10 8 0 8 -4 12 -9 9 -4 -3 -8 -1 -8 5 0 5 6 12 13
15 9 5 9 7 -1 12 -10 5 -9 9 4 18 18 14 10 41 -8 30 -7 -4 -8 -2 -4 5 4 6 12
9 17 6 5 -4 9 1 9 10 0 9 -4 13 -10 10 -16 -10 -11 1 7 16 15 12 16 12 8 -1
-4 -8 -4 -12 0 -7 10 9 15 48 5 42 -4 -2 -7 3 -7 11 0 9 6 13 14 10 9 -4 11
-2 6 7 -12 19 -12 36 -1 44 7 4 8 1 3 -8 -5 -8 -4 -11 0 -6 10 8 14 57 4 52
-3 -2 -6 2 -6 10 0 8 4 12 9 9 5 -4 8 2 6 12 -2 12 2 18 12 16 10 -1 9 2 -4
13 -11 8 -14 15 -8 15 7 0 12 12 12 26 0 14 4 22 10 19 6 -4 7 1 3 11 -5 13
-3 15 8 10 8 -4 5 0 -5 8 -19 15 -19 16 8 16 15 0 25 4 21 10 -3 6 -1 10 4 10
6 0 11 -6 11 -12 0 -9 4 -8 10 2 8 13 10 12 10 -3 0 -10 5 -15 10 -12 6 4 8
10 6 14 -3 4 6 7 19 7 13 0 21 -4 19 -8 -3 -5 -10 -5 -16 -2 -7 4 -8 2 -4 -4
9 -15 12 -15 30 4 10 10 16 11 16 3 0 -8 4 -8 16 2 10 8 18 9 22 2 8 -11 47
-11 58 0 12 12 26 8 19 -5 -4 -7 0 -5 8 5 15 18 15 18 20 0 3 -13 5 -11 6 7 1
18 4 21 10 12 12 -19 51 5 43 26 -4 11 -1 13 8 7 10 -6 12 -4 7 8 -4 10 -2 16
5 14 6 -1 14 10 19 26 6 22 4 27 -9 27 -15 0 -15 2 -2 11 12 9 12 10 -3 5 -10
-3 -23 -6 -28 -6 -6 0 -7 -4 -4 -10 10 -17 -12 -11 -31 8 -17 16 -17 16 -11 0
3 -10 2 -20 -3 -23 -6 -4 -10 -1 -10 4 0 6 -5 11 -11 11 -5 0 -7 -4 -4 -10 3
-5 2 -10 -4 -10 -5 0 -15 8 -20 18 -6 9 -11 12 -11 6 0 -6 -12 -16 -27 -23
-22 -10 -25 -10 -15 2 9 11 8 13 -8 12 -11 -1 -23 -5 -27 -10 -5 -4 -1 -5 7 0
8 5 12 4 7 0 -10 -11 -48 -14 -41 -3 3 4 -2 8 -10 8 -9 0 -16 -5 -16 -11 0 -5
-5 -7 -10 -4 -6 4 -8 12 -4 18 3 7 -2 3 -10 -7 -12 -15 -16 -16 -16 -5 0 12
-2 12 -10 -1 -8 -13 -10 -12 -10 3 0 9 -6 16 -12 15 -18 -4 -10 34 10 50 14
11 14 12 -4 12 -16 0 -17 2 -4 10 8 5 12 10 7 10 -4 0 1 12 10 27 10 15 13 24
6 20 -8 -5 -11 -1 -10 12 0 11 5 17 10 14 5 -3 6 4 2 17 -4 14 -3 20 3 16 5
-3 8 7 6 24 -3 24 0 28 14 23 13 -4 13 -2 -3 10 -13 11 -15 16 -6 17 8 0 11 6
7 16 -5 12 -2 15 11 10 15 -5 15 -4 -1 9 -11 8 -15 15 -9 15 7 0 10 11 7 28
-4 26 -4 26 12 7 15 -19 15 -19 9 6 -6 23 -3 27 19 31 15 3 29 1 33 -5 4 -6 1
-7 -7 -2 -9 5 -11 4 -6 -4 6 -9 11 -9 23 1 8 6 25 12 38 12 13 0 30 -6 38 -12
12 -10 17 -10 23 -1 5 8 3 10 -7 4 -8 -5 -11 -4 -6 0 12 14 59 12 65 -3 4 -11
9 -8 19 9 8 14 12 16 9 6 -4 -12 -2 -16 5 -11 6 4 15 0 20 -7 7 -11 9 -9 9 6
0 17 2 17 10 5 5 -8 10 -10 10 -4 0 6 10 9 24 7 13 -3 27 0 30 6 4 6 13 11 19
11 7 0 6 -4 -3 -10 -8 -5 -10 -10 -5 -10 6 1 19 7 29 15 10 8 23 12 29 8 6 -3
7 -1 4 4 -7 11 20 28 37 24 5 -1 3 6 -5 15 -9 12 -9 15 -1 10 7 -4 12 -2 12 4
0 6 4 8 10 5 6 -3 7 1 4 10 -4 9 -3 15 2 13 5 -2 9 2 9 7 0 6 -5 10 -12 10 -6
0 -15 4 -20 9 -4 5 -3 7 2 4 6 -3 19 -1 30 3 19 9 19 9 -2 5 -12 -2 -24 1 -27
8 -3 7 -5 7 -5 -1z m-231 -627 c0 -3 -4 -8 -10 -11 -5 -3 -10 -1 -10 4 0 6 5
11 10 11 6 0 10 -2 10 -4z"/>
<path d="M785 1930 c-6 -9 -4 -11 6 -5 12 7 12 6 0 -6 -11 -11 -14 -11 -18 -1
-4 10 -8 10 -21 0 -12 -10 -14 -10 -8 0 5 8 0 12 -16 12 -18 0 -20 -2 -8 -10
9 -6 10 -10 3 -10 -6 0 -15 5 -18 10 -3 6 -11 10 -16 10 -6 0 -8 -4 -5 -8 3
-5 -1 -9 -9 -9 -8 0 -15 5 -15 10 0 5 -7 4 -15 -3 -11 -9 -15 -9 -15 -1 0 7
-5 9 -10 6 -6 -4 -7 -12 -3 -18 4 -7 -5 -4 -20 6 -25 16 -26 16 -20 0 3 -10 3
-15 -2 -11 -4 4 -15 2 -23 -5 -13 -10 -15 -9 -9 8 6 17 4 16 -11 -4 -15 -18
-21 -21 -27 -11 -6 9 -4 11 5 5 9 -6 11 -4 5 5 -6 10 -12 7 -25 -10 -11 -14
-19 -18 -21 -11 -3 7 -12 9 -22 6 -9 -4 -14 -12 -10 -19 4 -6 0 -6 -9 2 -13
10 -18 10 -24 1 -5 -8 -3 -10 7 -4 12 7 12 5 1 -6 -11 -12 -14 -12 -22 1 -9
13 -10 13 -10 0 0 -8 -12 -23 -25 -33 -29 -21 -33 -13 -7 11 10 10 13 13 6 9
-7 -4 -16 -6 -22 -5 -5 2 -10 -1 -11 -5 -1 -11 -28 -37 -39 -37 -6 0 -13 6
-16 13 -3 6 -3 2 0 -10 4 -17 2 -21 -9 -17 -8 3 -18 1 -21 -5 -4 -6 -14 -7
-24 -4 -16 6 -16 6 1 -11 21 -22 23 -33 1 -16 -12 11 -15 11 -12 0 2 -7 -3
-15 -11 -18 -9 -3 -11 0 -6 8 5 8 4 11 -3 6 -6 -4 -9 -13 -5 -21 3 -11 1 -13
-10 -9 -12 4 -15 -1 -13 -20 3 -22 1 -24 -12 -14 -13 11 -14 9 -7 -11 5 -16 4
-21 -4 -17 -7 5 -8 1 -4 -10 5 -13 3 -15 -7 -9 -9 5 -11 4 -6 -4 4 -6 2 -18
-4 -26 -10 -12 -9 -16 6 -22 16 -6 16 -7 -2 -14 -17 -7 -17 -8 -1 -8 9 -1 17
-6 17 -12 0 -5 -4 -8 -8 -5 -5 3 -9 -1 -9 -8 0 -8 8 -11 20 -8 14 3 18 1 13
-6 -5 -8 0 -11 16 -8 16 2 22 9 20 21 -3 13 1 16 14 11 14 -5 15 -4 4 9 -10
13 -9 15 10 15 19 0 20 2 10 15 -11 13 -10 14 3 10 8 -4 18 -1 22 4 3 6 11 8
17 5 6 -4 5 3 -2 16 -8 15 -8 20 -1 16 6 -4 14 0 17 9 5 13 9 13 23 3 9 -7 13
-9 9 -4 -11 14 31 53 55 50 12 -1 25 -3 30 -3 4 -1 7 -6 7 -12 0 -6 -7 -9 -14
-6 -11 4 -13 1 -9 -10 5 -12 3 -14 -8 -8 -12 8 -12 6 -1 -8 8 -9 10 -22 6 -28
-4 -8 -3 -9 4 -5 15 9 16 -36 2 -50 -13 -13 -22 -56 -10 -49 4 3 6 -4 3 -15
-3 -11 -9 -17 -14 -14 -5 3 -9 0 -9 -5 0 -6 4 -11 8 -11 5 0 9 -7 9 -15 0 -12
-3 -12 -15 -2 -13 10 -14 9 -3 -10 8 -16 8 -23 1 -23 -6 0 -8 -5 -3 -12 11
-18 13 -39 3 -33 -5 3 -11 1 -15 -5 -3 -5 -1 -10 5 -10 6 0 8 -5 5 -10 -4 -6
-10 -8 -14 -6 -4 3 -6 -15 -5 -40 2 -38 0 -43 -12 -33 -12 10 -13 9 -8 -5 3
-9 10 -16 16 -16 5 0 6 -5 3 -10 -4 -6 -12 -7 -18 -3 -7 4 -6 0 2 -10 12 -15
11 -17 -5 -17 -17 0 -17 -1 2 -16 10 -8 14 -13 7 -10 -6 4 -14 2 -18 -4 -3 -5
-2 -10 3 -10 6 0 9 -11 8 -24 -1 -15 -6 -22 -15 -18 -10 4 -11 1 -4 -14 12
-23 6 -47 -9 -38 -7 5 -8 2 -3 -7 16 -25 12 -51 -8 -58 -18 -7 -18 -8 -4 -14
10 -4 17 -12 17 -19 0 -10 -2 -10 -9 0 -7 11 -9 11 -14 -2 -4 -9 -2 -16 3 -16
5 0 8 -13 7 -29 -2 -22 -5 -27 -15 -19 -9 8 -11 7 -6 -6 3 -9 10 -16 15 -16 5
0 9 -5 9 -11 0 -5 -4 -8 -8 -5 -4 2 -8 -4 -8 -15 0 -11 5 -17 12 -15 7 3 11
-3 9 -12 -4 -25 13 -41 38 -35 16 3 18 2 9 -5 -11 -7 -9 -10 7 -15 12 -3 19
-1 16 3 -3 5 5 7 17 4 13 -3 28 -6 34 -8 7 -1 19 -8 28 -15 14 -12 16 -12 10
3 -5 13 -2 15 12 10 11 -4 25 -12 33 -18 12 -9 13 -8 6 3 -6 11 -4 13 9 8 14
-6 17 -3 12 9 -6 14 -4 15 9 4 19 -16 66 -20 58 -6 -4 5 1 6 12 2 14 -5 15 -4
7 7 -9 10 -5 13 21 11 18 -1 38 3 46 9 12 10 14 9 8 -8 -6 -17 -5 -17 11 3 14
18 20 20 30 10 9 -9 12 -9 12 0 0 7 7 9 17 5 12 -5 15 -2 10 9 -4 11 0 15 11
13 9 -1 30 4 46 12 15 8 25 10 22 5 -4 -6 -1 -14 5 -18 7 -4 9 -3 6 3 -9 15
20 37 52 39 37 2 41 3 40 12 -3 19 2 25 11 12 8 -13 10 -13 10 1 0 9 8 23 17
30 10 8 14 9 10 2 -4 -6 -3 -14 3 -18 5 -3 10 1 10 10 0 11 5 15 14 12 10 -4
13 -1 10 7 -4 9 3 13 20 11 14 -2 25 0 25 3 -3 20 2 32 11 27 6 -3 7 1 4 9 -4
11 0 16 11 16 10 0 13 -4 9 -12 -5 -9 -2 -9 9 1 9 7 17 19 17 25 0 6 -5 4 -10
-4 -6 -9 -10 -10 -10 -3 0 16 37 36 52 27 7 -4 8 -3 4 4 -4 7 -1 12 6 12 11 0
10 2 0 9 -11 7 -10 10 3 15 9 3 22 3 28 0 9 -5 9 -3 0 6 -9 10 -9 16 2 26 7 8
20 14 27 14 10 0 9 3 -2 10 -13 8 -13 10 2 10 9 0 20 5 24 12 4 7 3 8 -4 4 -8
-5 -10 -2 -6 8 3 9 10 13 15 10 5 -3 9 0 9 6 0 6 5 8 12 4 7 -4 8 -3 4 5 -4 6
-13 8 -19 4 -8 -5 -8 -2 0 9 7 8 10 18 6 22 -4 4 1 4 12 0 15 -6 17 -4 12 9
-3 9 -2 17 4 17 6 0 7 5 4 10 -3 6 0 10 7 10 9 0 9 3 -2 10 -14 9 -7 14 13 11
4 -1 3 7 -2 18 -8 14 -7 22 3 30 7 6 16 8 19 5 4 -4 2 8 -3 26 -8 27 -7 31 7
25 14 -5 13 -2 -2 15 -11 12 -15 21 -10 20 21 -5 29 1 15 10 -13 8 -13 13 -2
31 8 11 9 18 4 15 -6 -3 -13 1 -16 10 -3 8 -2 12 3 9 5 -3 12 -1 16 5 3 5 2
10 -3 10 -5 0 -12 11 -14 25 -4 18 -2 23 6 18 7 -5 4 -1 -6 9 -20 18 -24 33
-7 22 8 -4 8 0 0 15 -7 11 -16 21 -21 21 -6 0 -10 12 -10 26 0 14 -4 23 -9 20
-12 -8 -8 27 4 36 6 5 6 8 -2 8 -6 0 -15 -5 -18 -10 -4 -6 -11 -8 -16 -4 -6 4
-6 11 2 20 9 11 7 14 -10 14 -12 0 -19 5 -16 10 3 6 1 10 -6 10 -7 0 -9 3 -6
7 4 3 2 12 -4 20 -9 10 -15 10 -25 2 -10 -8 -12 -6 -9 11 4 19 2 20 -12 8 -15
-11 -16 -10 -11 10 5 18 3 21 -6 13 -9 -7 -19 -6 -33 4 -17 12 -23 12 -27 2
-3 -6 -3 -2 -1 10 3 12 0 25 -6 29 -8 4 -9 3 -5 -4 5 -8 0 -12 -13 -12 -12 0
-21 5 -21 11 0 8 -6 7 -17 -2 -11 -10 -14 -10 -9 -1 4 7 1 12 -8 12 -9 0 -16
5 -16 10 0 12 -22 9 -32 -5 -5 -6 -8 -5 -8 3 0 7 -6 12 -12 11 -25 -3 -39 1
-34 9 3 5 -1 9 -9 9 -8 0 -12 -4 -9 -9 3 -4 -2 -8 -11 -8 -10 0 -13 5 -9 12 5
7 3 8 -7 2 -24 -14 -42 -14 -54 3 -10 13 -14 13 -20 3z m-22 -125 c38 1 47 -2
42 -13 -5 -13 -3 -13 11 -1 22 18 41 20 41 3 0 -11 -4 -11 -16 -2 -13 10 -14
10 -4 -2 13 -14 47 -24 38 -11 -2 4 2 8 10 8 8 0 12 -4 10 -8 -3 -4 2 -10 11
-13 10 -4 13 -2 8 7 -6 9 -5 9 7 0 8 -6 16 -11 19 -12 17 0 39 -15 34 -22 -3
-5 2 -9 11 -9 10 0 13 -5 9 -12 -6 -10 -4 -10 8 0 14 11 17 10 23 -8 4 -13 12
-19 21 -16 7 3 16 0 20 -6 4 -7 3 -8 -4 -4 -22 13 -12 -7 14 -29 18 -15 25
-29 21 -39 -5 -11 0 -19 13 -24 18 -7 20 -10 20 -33 0 -5 4 -8 8 -5 5 3 9 -1
9 -9 0 -8 -4 -12 -9 -9 -4 3 -8 -2 -8 -11 0 -9 4 -14 9 -11 5 3 11 -3 14 -13
3 -14 1 -18 -9 -14 -10 4 -10 -3 3 -28 12 -24 13 -34 5 -37 -7 -2 -12 -8 -12
-13 0 -6 4 -8 8 -5 4 2 8 -8 7 -24 0 -15 -3 -26 -6 -24 -4 2 -10 -3 -13 -12
-3 -8 -2 -12 4 -9 6 3 7 -1 4 -9 -3 -9 -11 -13 -16 -10 -6 4 -5 -3 1 -15 10
-17 9 -21 -4 -21 -9 0 -13 -5 -10 -10 4 -6 12 -7 18 -3 7 3 5 -2 -4 -13 -9
-10 -14 -26 -12 -34 4 -12 3 -13 -5 -1 -5 7 -15 10 -22 6 -8 -5 -6 -12 6 -26
17 -19 17 -20 -1 -13 -15 6 -17 4 -12 -10 4 -9 3 -15 -2 -11 -5 3 -11 -5 -13
-17 -2 -13 -9 -23 -17 -23 -8 0 -16 -6 -19 -14 -3 -9 0 -11 8 -6 9 5 11 4 6
-4 -4 -6 -11 -9 -16 -6 -4 3 -11 -2 -14 -11 -4 -10 -12 -14 -22 -10 -14 5 -15
4 -5 -8 9 -11 6 -17 -13 -30 -32 -20 -37 -20 -31 2 3 9 -1 4 -9 -12 -7 -16
-21 -31 -30 -33 -21 -4 -50 -11 -56 -13 -3 -1 -8 -2 -12 -1 -4 0 -5 -6 -2 -14
4 -10 0 -13 -15 -10 -12 2 -19 0 -16 -5 3 -5 1 -11 -5 -15 -5 -3 -10 -1 -10 4
0 17 -18 13 -39 -10 -14 -15 -21 -17 -26 -8 -5 8 -4 10 3 5 7 -4 12 -5 12 -2
0 14 -19 14 -31 -1 -12 -14 -12 -16 0 -8 10 6 12 4 6 -5 -6 -10 -11 -9 -22 5
-11 17 -17 14 -14 -7 0 -6 -7 -6 -44 2 -23 5 -36 -1 -29 -12 6 -10 5 -10 -8
-1 -8 7 -18 10 -22 6 -13 -14 -38 -12 -32 3 3 8 1 14 -4 14 -6 0 -10 -5 -10
-11 0 -6 -9 -8 -22 -3 -13 4 -31 7 -41 6 -15 -1 -16 2 -7 14 10 11 10 14 0 14
-9 0 -9 4 1 17 12 15 12 16 -3 10 -14 -5 -16 -2 -9 16 5 12 7 30 6 39 -2 10 1
21 6 24 6 3 5 11 -2 20 -10 12 -9 13 6 8 15 -6 16 -4 5 16 -11 20 -10 22 5 16
15 -5 16 -4 5 9 -8 10 -9 15 -1 15 6 0 11 5 11 11 0 5 -6 7 -12 3 -10 -6 -10
-4 0 7 15 16 16 33 0 23 -7 -4 -8 -3 -4 4 4 7 15 12 24 13 14 0 13 2 -3 9 -11
5 -14 9 -8 9 14 1 13 27 -2 51 -5 9 1 7 15 -5 13 -11 20 -14 16 -7 -12 20 -14
72 -2 65 5 -4 7 1 3 10 -4 10 -1 17 6 18 8 0 7 3 -2 6 -10 4 -8 9 10 20 13 8
16 12 7 9 -10 -3 -18 -1 -18 4 0 6 4 10 10 10 5 0 6 7 3 17 -4 10 -2 14 5 9 7
-4 9 4 7 26 -3 21 2 39 13 52 16 20 16 20 -1 7 -16 -13 -17 -12 -7 13 5 15 7
33 3 39 -4 7 2 5 12 -3 17 -14 18 -14 6 8 -9 17 -9 22 1 23 10 0 10 2 0 6 -10
4 -9 9 5 20 10 8 12 12 6 8 -14 -7 -18 11 -5 19 12 7 7 51 -5 51 -6 0 -15 4
-20 9 -5 5 -3 6 5 2 6 -4 12 -3 12 3 0 5 -13 9 -30 9 -16 -1 -36 5 -45 12 -13
11 -14 10 -9 -5 5 -12 4 -16 -4 -11 -6 3 -13 2 -17 -3 -3 -6 -13 -7 -22 -4
-10 4 -14 2 -10 -4 8 -13 -19 -11 -30 2 -4 4 -2 5 6 0 10 -5 12 -4 7 4 -4 6
-19 9 -34 7 -26 -5 -26 -4 -7 10 10 8 24 13 29 11 6 -2 17 4 26 13 8 9 13 11
10 5 -3 -6 3 -2 13 8 9 11 17 14 17 8 0 -7 5 -9 10 -6 6 4 7 11 4 17 -4 6 2 6
15 -1 18 -10 21 -9 21 6 0 15 2 16 10 3 7 -11 10 -11 10 -2 0 7 5 10 10 7 6
-3 10 0 10 7 0 10 2 10 9 -1 7 -11 11 -10 20 5 7 13 10 14 11 5 0 -8 3 -11 7
-8 3 4 12 2 20 -5 10 -8 12 -8 8 3 -4 10 2 15 15 16 13 1 18 -2 14 -10 -4 -7
1 -4 11 5 10 10 23 14 29 10 6 -4 33 -7 59 -7z m442 -15 c3 -5 1 -10 -4 -10
-6 0 -11 5 -11 10 0 6 2 10 4 10 3 0 8 -4 11 -10z m-335 -820 c0 -5 -5 -10
-11 -10 -5 0 -7 5 -4 10 3 6 8 10 11 10 2 0 4 -4 4 -10z m-573 -155 c0 -8 -4
-12 -9 -9 -5 3 -6 10 -3 15 9 13 12 11 12 -6z"/>
<path d="M441 1721 c-10 -6 -9 -10 3 -14 8 -3 18 -2 21 3 8 13 -9 20 -24 11z"/>
<path d="M526 1718 c3 -5 10 -6 15 -3 13 9 11 12 -6 12 -8 0 -12 -4 -9 -9z"/>
<path d="M1046 1147 c3 -10 9 -15 12 -12 3 3 0 11 -7 18 -10 9 -11 8 -5 -6z"/>
<path d="M963 1055 c0 -7 6 -11 14 -8 7 3 13 6 13 8 0 2 -6 5 -13 8 -8 3 -14
-1 -14 -8z"/>
<path d="M1300 1661 c0 -5 7 -12 16 -15 14 -5 15 -4 4 9 -14 17 -20 19 -20 6z"/>
<path d="M360 776 c0 -3 9 -10 19 -16 15 -7 22 -7 27 2 4 7 4 10 -1 6 -4 -4
-16 -3 -26 3 -11 5 -19 7 -19 5z"/>
<path d="M1556 622 c-3 -5 1 -9 9 -9 8 0 12 4 9 9 -3 4 -7 8 -9 8 -2 0 -6 -4
-9 -8z"/>
</g>
</svg>
