<?xml version="1.0" standalone="no"?>
<!DOCTYPE svg PUBLIC "-//W3C//DTD SVG 20010904//EN"
 "http://www.w3.org/TR/2001/REC-SVG-20010904/DTD/svg10.dtd">
<svg version="1.0" xmlns="http://www.w3.org/2000/svg"
 width="242.000000pt" height="242.000000pt" viewBox="0 0 242.000000 242.000000"
 preserveAspectRatio="xMidYMid meet">
<metadata>
Created by potrace 1.11, written by Peter Selinger 2001-2013
</metadata>
<g transform="translate(0.000000,242.000000) scale(0.100000,-0.100000)"
fill="#000000" stroke="none">
<path d="M20 1210 l0 -1210 1190 0 1190 0 0 1210 0 1210 -1190 0 -1190 0 0
-1210z m1411 248 c75 0 156 3 179 7 l43 7 -7 -37 c-4 -21 -7 -62 -7 -92 0 -56
-13 -63 -24 -13 -8 34 -66 89 -98 91 -40 3 -102 -3 -108 -9 -4 -4 -10 -51 -13
-105 l-7 -99 33 7 c45 9 77 31 96 66 10 16 19 29 22 29 3 0 3 -46 1 -102 -3
-98 -4 -101 -17 -71 -15 36 -40 53 -78 53 -54 0 -57 -5 -50 -94 8 -111 20
-151 51 -175 l26 -21 -64 0 c-35 0 -82 -3 -104 -6 l-40 -5 27 16 c15 8 32 24
38 35 12 22 12 257 1 379 -8 78 -11 87 -40 113 -17 15 -38 28 -46 28 -8 0 -15
4 -15 9 0 6 13 6 33 0 17 -6 93 -10 168 -11z m-326 -32 c42 -19 62 -36 84 -72
50 -78 63 -198 32 -302 -25 -84 -102 -163 -182 -186 -59 -18 -184 -21 -194 -6
-4 6 5 10 20 10 19 0 28 7 36 28 14 35 13 502 -1 516 -14 14 -86 -10 -122 -43
-39 -35 -43 -85 -9 -113 13 -10 30 -18 39 -18 23 0 52 30 52 55 0 27 -34 59
-55 52 -17 -7 -20 -42 -5 -52 6 -3 10 1 10 9 0 9 5 16 11 16 6 0 9 -8 7 -17
-5 -29 -42 -22 -46 8 -7 58 66 61 88 3 32 -84 -92 -124 -133 -42 -20 40 -12
75 26 116 69 74 226 91 342 38z"/>
<path d="M976 1422 c-10 -9 -7 -479 4 -506 8 -23 12 -25 37 -15 67 25 129 99
154 181 13 45 12 172 -2 217 -13 41 -51 86 -91 107 -29 15 -93 26 -102 16z"/>
</g>
</svg>
